<?xml version="1.0" encoding="UTF-8"?>
<svg width="162px" height="48px" viewBox="0 0 162 48" version="1.1" xmlns="http://www.w3.org/2000/svg" xmlns:xlink="http://www.w3.org/1999/xlink">
    <!-- Generator: Sketch 53.2 (72643) - https://sketchapp.com -->
    <title>Logo GETTE 1 Copy</title>
    <desc>Created with Sketch.</desc>
    <g id="Page-1" stroke="none" stroke-width="1" fill="none" fill-rule="evenodd">
        <g id="Mobile-Copy-2" transform="translate(-130.000000, -207.000000)" fill="#CCCCCC" fill-rule="nonzero">
            <g id="Logo-GETTE-1-Copy" transform="translate(130.000000, 207.000000)">
                <g id="g10" transform="translate(81.000000, 24.000000) scale(-1, 1) rotate(-180.000000) translate(-81.000000, -24.000000) ">
                    <g id="g1368">
                        <path d="M15.3439032,47.4407842 C14.244943,47.4074994 13.2606867,47.0513622 12.3585735,46.3482836 C11.4502698,45.6390222 10.8721198,44.7875543 10.593886,43.7676919 L0.588554612,5.36573709 C0.588554612,5.3628527 0.591548145,5.35943997 0.588554612,5.35636995 C0.2731394,3.94709704 0.473095921,2.85460075 1.16362226,1.96686086 C1.85105336,1.08295779 2.88645758,0.617831848 4.36672652,0.578437 L4.3761941,0.578437 L34.213924,0.578437 L34.2263852,0.578437 C35.3284392,0.611726068 36.3274297,0.977094757 37.2504618,1.68329906 C38.177377,2.38946624 38.7586236,3.23165125 39.0368431,4.25148218 L45.5337199,29.1958105 L25.4230961,29.1958105 L22.7345944,18.8232951 L31.4138896,18.8232951 C31.6347608,18.8261509 31.8199802,18.5876314 31.7618728,18.3790267 L30.397084,13.0254883 C30.397084,13.0224897 30.397084,13.0192055 30.397084,13.0160641 C30.230456,12.445839 29.8824915,11.9536926 29.3825887,11.5673835 C28.8772847,11.1779472 28.2774452,10.9785955 27.6388316,10.9608465 C27.6357664,10.9608465 27.6294356,10.9608465 27.6263705,10.9608465 L15.2719926,10.9608465 C14.7027014,11.0302862 14.1159934,11.2090759 13.7946713,11.5580877 C13.4435944,11.9536926 13.3498166,12.4999286 13.4885375,13.0670551 C13.4885375,13.0700537 13.4885375,13.0733379 13.4885375,13.0764793 L19.2437372,34.9210075 C19.2437372,34.9238634 19.2437372,34.9304318 19.2437372,34.9332876 C19.4103595,35.5034841 19.752135,36.0080106 20.2396153,36.4306317 C20.7333061,36.8586932 21.3145485,37.0943283 21.932236,37.1182602 C21.9352295,37.1182602 21.9385525,37.1182602 21.9438234,37.1182602 L158.484404,37.1182602 L161.778178,47.4407842 L15.3562698,47.4405843 L15.3446824,47.4405843 L15.3439032,47.4407842 Z" id="path1390"></path>
                        <path d="M51.4630343,8.24763679 C51.1515064,8.24763679 50.891112,8.31716787 50.6911469,8.45626428 C50.488088,8.59763108 50.3826985,8.80627713 50.3764965,9.08670608 C50.3793612,9.43052176 50.5276055,9.73263794 50.8213584,9.98914496 C51.1119602,10.2487491 51.5328166,10.4898004 52.0776252,10.7192712 L71.228786,19.0188628 C72.0495152,19.3935772 72.7726037,19.9606751 73.3964903,20.7217129 C74.0234564,21.4788954 74.4497268,22.2785869 74.6798994,23.1207448 L76.6662444,30.8138137 C76.926653,31.9333448 76.7724217,32.8450565 76.199683,33.5481351 C75.6246096,34.2512137 74.7736872,34.6166752 73.6390667,34.6375657 L51.8900782,34.6375657 C51.0360191,34.6167609 50.2610235,34.3331477 49.5681711,33.7930517 C48.8721963,33.2522133 48.418053,32.5854609 48.2026046,31.7950223 L40.9671503,4.00436086 C40.7067416,2.88790696 40.8617465,1.98548663 41.4337117,1.29398132 C42.0056483,0.602484578 42.8597218,0.247068483 43.9950871,0.228551234 L65.5557408,0.228551234 C66.4067349,0.249356009 67.1724203,0.530630283 67.8598443,1.07377056 C68.5434153,1.61385795 69.0068686,2.28061315 69.2432431,3.07180289 L71.8433912,12.9560487 L63.4275683,12.9560487 L62.5285775,9.55416381 C62.4348184,9.17091758 62.2433755,8.86035241 61.9558388,8.62157157 C61.6652227,8.38051891 61.2746168,8.25693112 60.7786071,8.24763679 L51.4630343,8.24763679 L51.4630343,8.24763679 Z M53.7338365,20.5556174 L54.9141477,25.2663354 C55.0234332,25.6495602 55.2442957,25.9755826 55.5775518,26.2444597 C55.9107936,26.5133653 56.273498,26.651645 56.6641039,26.664025 L66.170346,26.664025 C66.5244996,26.6607408 66.7941896,26.585261 66.9786571,26.4314599 C67.1631246,26.2777016 67.25379,26.0606009 67.2569124,25.7793437 C67.2506103,25.4115976 67.1057749,25.0978695 66.8182238,24.8351896 C66.5307015,24.5725097 66.124598,24.3283499 65.6007011,24.101982 L55.1048028,19.5774646 C54.5545514,19.3479981 54.1546498,19.3178404 53.9066593,19.4902188 C53.6547585,19.6617403 53.5974374,20.0179204 53.7338365,20.5556745 L53.7338365,20.5556174 Z" id="path1392"></path>
                        <polygon id="path1394" points="86.8164971 26.664025 79.9630977 0.228551234 88.3789063 0.228551234 95.2330647 26.664025 104.971785 26.664025 107.055012 34.6375657 79.2059202 34.6375657 77.1234957 26.664025"></polygon>
                        <polygon id="path1396" points="107.747864 26.664025 100.894451 0.228551234 109.310274 0.228551234 116.164389 26.664025 125.906247 26.664025 127.986408 34.6375657 100.137288 34.6375657 98.0571691 26.664025 107.747864 26.664025"></polygon>
                        <path d="M132.217902,8.24763679 C131.903223,8.24763679 131.645966,8.31716787 131.442864,8.45626428 C131.240593,8.59763108 131.137567,8.80627713 131.128242,9.08670608 C131.132539,9.43052176 131.280168,9.73263794 131.573076,9.98914496 C131.863749,10.2487491 132.284519,10.4898004 132.832508,10.7192712 L151.980546,19.0188628 C152.801318,19.3935772 153.525137,19.9606751 154.148236,20.7217129 C154.775216,21.4788954 155.20226,22.2785869 155.432433,23.1207448 L157.418047,30.8138137 C157.678413,31.9333448 157.524182,32.8450565 156.952231,33.5481351 C156.379463,34.2512137 155.526235,34.6166752 154.390827,34.6375657 L132.641867,34.6375657 C131.788567,34.6167609 131.013543,34.3331477 130.319917,33.7930517 C129.627064,33.2522133 129.169813,32.5854609 128.955124,31.7950223 L121.719684,4.00436086 C121.459246,2.88790696 121.616543,1.98548663 122.188537,1.29398132 C122.760474,0.602484578 123.611468,0.247068483 124.746833,0.228551234 L146.307501,0.228551234 C147.158452,0.249356009 147.927289,0.530630283 148.611633,1.07377056 C149.299057,1.61385795 149.758586,2.28061315 149.995017,3.07180289 L152.595151,12.9560487 L144.179328,12.9560487 L143.280338,9.55416381 C143.186578,9.17091758 142.99588,8.86035241 142.708415,8.62157157 C142.417742,8.38051891 142.027193,8.25693112 141.530396,8.24763679 L132.217902,8.24763679 L132.217902,8.24763679 Z M134.485582,20.5556174 L135.669775,25.2663354 C135.775165,25.6495602 135.996056,25.9755826 136.329312,26.2444597 C136.662582,26.5133653 137.026032,26.651645 137.418972,26.664025 L146.922106,26.664025 C147.27626,26.6607408 147.545964,26.585261 147.730403,26.4314599 C147.91487,26.2777016 148.00863,26.0606009 148.00863,25.7793437 C148.00863,25.4115976 147.860614,25.0978695 147.569998,24.8351896 C147.282476,24.5725097 146.877146,24.3283499 146.353249,24.101982 L135.857308,19.5774646 C135.306311,19.3479981 134.90641,19.3178404 134.658405,19.4902188 C134.4104,19.6617403 134.352248,20.0179204 134.485582,20.5556745 L134.485582,20.5556174 Z" id="path1398"></path>
                    </g>
                </g>
            </g>
        </g>
    </g>
</svg>