<?xml version="1.0" encoding="UTF-8"?>
<svg width="9px" height="20px" viewBox="0 0 9 20" version="1.1" xmlns="http://www.w3.org/2000/svg" xmlns:xlink="http://www.w3.org/1999/xlink">
    <!-- Generator: Sketch 53.2 (72643) - https://sketchapp.com -->
    <title>facebook-logo</title>
    <desc>Created with Sketch.</desc>
    <g id="Page-1" stroke="none" stroke-width="1" fill="none" fill-rule="evenodd">
        <g id="Tablet" transform="translate(-293.000000, -3133.000000)" fill="#FFFFFF" fill-rule="nonzero">
            <g id="Group-2-Copy-2" transform="translate(293.000000, 3133.000000)">
                <g id="facebook-logo">
                    <path d="M8.66108642,0.00416133496 L6.50239566,0 C4.07718063,0 2.50990013,1.93189975 2.50990013,4.92202699 L2.50990013,7.191411 L0.339433124,7.191411 C0.151879005,7.191411 0,7.37409361 0,7.5994299 L0,10.8875087 C0,11.112845 0.152052185,11.2953195 0.339433124,11.2953195 L2.50990013,11.2953195 L2.50990013,19.5921892 C2.50990013,19.8175255 2.66177914,20 2.84933326,20 L5.68117532,20 C5.86872943,20 6.02060844,19.8173174 6.02060844,19.5921892 L6.02060844,11.2953195 L8.55839058,11.2953195 C8.7459447,11.2953195 8.8978237,11.112845 8.8978237,10.8875087 L8.89886278,7.5994299 C8.89886278,7.49123519 8.86301449,7.38761795 8.79945737,7.31104938 C8.73590025,7.23448082 8.64931017,7.191411 8.55925648,7.191411 L6.02060844,7.191411 L6.02060844,5.26762585 C6.02060844,4.34297723 6.20400623,3.87357864 7.20654621,3.87357864 L8.66074006,3.87295444 C8.848121,3.87295444 9,3.69027184 9,3.46514362 L9,0.411972161 C9,0.187052006 8.84829418,0.00457746845 8.66108642,0.00416133496 Z" id="Path"></path>
                </g>
            </g>
        </g>
    </g>
</svg>