<?xml version="1.0" encoding="UTF-8"?>
<svg width="20px" height="20px" viewBox="0 0 20 20" version="1.1" xmlns="http://www.w3.org/2000/svg" xmlns:xlink="http://www.w3.org/1999/xlink">
    <!-- Generator: Sketch 53.2 (72643) - https://sketchapp.com -->
    <title>instagram</title>
    <desc>Created with Sketch.</desc>
    <defs>
        <path d="M19.6159803,7.94550473 L19.6159803,15.8735002 C19.6159803,17.9384823 17.9371107,19.6166662 15.8735002,19.6166662 L3.99248005,19.6166662 C1.92818367,19.6166662 0.249999867,17.9384823 0.249999867,15.8735002 L0.249999867,7.94550473 L0.249999867,3.99248005 C0.249999867,1.92818367 1.92818367,0.249999867 3.99248005,0.249999867 L15.8728143,0.249999867 C17.9371107,0.249999867 19.6159803,1.92818367 19.6159803,3.99248005 L19.6159803,7.94550473 Z M9.93230428,13.3407937 C11.8107453,13.3407937 13.3421653,11.812117 13.3421653,9.93230428 C13.3421653,9.19025488 13.0993875,8.50512795 12.6975013,7.94550473 C12.0782123,7.08686718 11.0714393,6.5238149 9.93436172,6.5238149 C8.79659837,6.5238149 7.79051107,7.08618137 7.16985052,7.94481893 C6.76659262,8.50444213 6.52587235,9.18956907 6.52518653,9.93161847 C6.5231291,11.8114312 8.05317735,13.3407937 9.93230428,13.3407937 Z M17.37543,5.76256275 L17.37543,2.90546683 L17.37543,2.48026293 L16.9481687,2.48163455 L14.0924445,2.49055012 L14.1034175,5.77353575 L17.37543,5.76256275 Z M15.229522,9.93230428 C15.229522,12.8518092 12.8538667,15.2288362 9.9329901,15.2288362 C7.01211358,15.2288362 4.63714403,12.8518092 4.63714403,9.93230428 C4.63714403,9.23003202 4.77704983,8.55862133 5.02668567,7.94550473 L2.13598493,7.94550473 L2.13598493,15.8735002 C2.13598493,16.8981043 2.9678758,17.7279378 3.99179423,17.7279378 L15.8721285,17.7279378 C16.8946753,17.7279378 17.7279378,16.8981043 17.7279378,15.8735002 L17.7279378,7.94550473 L14.8358655,7.94550473 C15.0875587,8.55862133 15.229522,9.23003202 15.229522,9.93230428 Z" id="path-1"></path>
    </defs>
    <g id="Page-1" stroke="none" stroke-width="1" fill="none" fill-rule="evenodd">
        <g id="Tablet" transform="translate(-343.000000, -3133.000000)">
            <g id="Group-2-Copy-2" transform="translate(293.000000, 3133.000000)">
                <g id="instagram" transform="translate(50.000000, 0.000000)">
                    <g id="Combined-Shape2" fill="#000000" fill-rule="nonzero">
                        <path d="M19.6159803,7.94550473 L19.6159803,15.8735002 C19.6159803,17.9384823 17.9371107,19.6166662 15.8735002,19.6166662 L3.99248005,19.6166662 C1.92818367,19.6166662 0.249999867,17.9384823 0.249999867,15.8735002 L0.249999867,7.94550473 L0.249999867,3.99248005 C0.249999867,1.92818367 1.92818367,0.249999867 3.99248005,0.249999867 L15.8728143,0.249999867 C17.9371107,0.249999867 19.6159803,1.92818367 19.6159803,3.99248005 L19.6159803,7.94550473 Z M9.93230428,13.3407937 C11.8107453,13.3407937 13.3421653,11.812117 13.3421653,9.93230428 C13.3421653,9.19025488 13.0993875,8.50512795 12.6975013,7.94550473 C12.0782123,7.08686718 11.0714393,6.5238149 9.93436172,6.5238149 C8.79659837,6.5238149 7.79051107,7.08618137 7.16985052,7.94481893 C6.76659262,8.50444213 6.52587235,9.18956907 6.52518653,9.93161847 C6.5231291,11.8114312 8.05317735,13.3407937 9.93230428,13.3407937 Z M17.37543,5.76256275 L17.37543,2.90546683 L17.37543,2.48026293 L16.9481687,2.48163455 L14.0924445,2.49055012 L14.1034175,5.77353575 L17.37543,5.76256275 Z M15.229522,9.93230428 C15.229522,12.8518092 12.8538667,15.2288362 9.9329901,15.2288362 C7.01211358,15.2288362 4.63714403,12.8518092 4.63714403,9.93230428 C4.63714403,9.23003202 4.77704983,8.55862133 5.02668567,7.94550473 L2.13598493,7.94550473 L2.13598493,15.8735002 C2.13598493,16.8981043 2.9678758,17.7279378 3.99179423,17.7279378 L15.8721285,17.7279378 C16.8946753,17.7279378 17.7279378,16.8981043 17.7279378,15.8735002 L17.7279378,7.94550473 L14.8358655,7.94550473 C15.0875587,8.55862133 15.229522,9.23003202 15.229522,9.93230428 Z" id="path-1"></path>
                    </g>
                    <g id="Atoms-/-Colors-/-Gray-#1-Clipped">
                        <mask id="mask-2" fill="white">
                            <use xlink:href="#path-1"></use>
                        </mask>
                        <g id="path-1"></g>
                        <g id="Atoms-/-Colors-/-Gray-#1" mask="url(#mask-2)" fill="#FFFFFF">
                            <g transform="translate(-6.666667, -6.666667)" id="Atoms-/-Colors-/-Black">
                                <rect x="0" y="0" width="33.648648" height="33.648648"></rect>
                            </g>
                        </g>
                    </g>
                </g>
            </g>
        </g>
    </g>
</svg>