<?xml version="1.0" encoding="UTF-8"?>
<svg width="33px" height="20px" viewBox="0 0 33 20" version="1.1" xmlns="http://www.w3.org/2000/svg" xmlns:xlink="http://www.w3.org/1999/xlink">
    <!-- Generator: Sketch 53.2 (72643) - https://sketchapp.com -->
    <title>iconfinder_218_Mixcloud_logo_logos_4373664</title>
    <desc>Created with Sketch.</desc>
    <g id="Page-1" stroke="none" stroke-width="1" fill="none" fill-rule="evenodd">
        <g id="Tablet" transform="translate(-459.000000, -3133.000000)" fill="#FFFFFF" fill-rule="nonzero">
            <g id="Group-2-Copy-2" transform="translate(293.000000, 3133.000000)">
                <g id="iconfinder_218_Mixcloud_logo_logos_4373664" transform="translate(166.000000, 0.000000)">
                    <path d="M21.8997561,8.07077074 C21.4701803,3.54938055 17.7462576,0 13.2344206,0 C9.49622172,0 6.18759864,2.47432034 4.99880434,6.0678865 C2.17707686,6.49484194 0,8.98384164 0,12.0030686 C0,15.316768 2.621144,18.0117214 5.85809938,18.0117214 L20.8398776,18.0117214 C23.5468937,18.0117214 25.7525946,15.7584028 25.7525946,12.9750045 C25.7526663,10.5743023 24.0912526,8.55688621 21.8997561,8.07077074 Z M20.8398776,15.7584028 L5.85809938,15.7584028 C3.83863408,15.7584028 2.19149648,14.0794972 2.19149648,12.0029211 C2.19149648,9.92627126 3.83863408,8.24736565 5.85809938,8.24736565 C6.83203405,8.24736565 7.74872065,8.64503613 8.43627146,9.35193211 C9.46896073,10.4137883 11.0295806,8.80798439 9.99753695,7.74657082 C9.23831843,6.98080987 8.30735568,6.45058256 7.30479698,6.18546891 C8.33605146,3.82917357 10.6564637,2.25324477 13.2344923,2.25324477 C16.829571,2.25324477 19.751375,5.25764488 19.751375,8.93943473 C19.751375,9.6611576 19.6368071,10.3679798 19.4220192,11.0455171 C18.9594433,12.5092484 21.0842221,13.1166345 21.4988043,11.7524868 C21.642068,11.3106307 21.7565642,10.8540953 21.8280884,10.3974861 C22.8308623,10.7953041 23.5613133,11.7966724 23.5613133,12.974857 C23.5613133,14.5066002 22.3437515,15.7584028 20.8398776,15.7584028 L20.8398776,15.7584028 Z M33,12.9750045 C33,15.316768 32.341145,17.569939 31.080683,19.4992789 C30.8658951,19.8232576 30.5221197,20 30.1641398,20 C29.3201253,20 28.7608446,18.9987054 29.2618011,18.2473288 C30.2643598,16.6863006 30.8087187,14.8600851 30.8087187,12.9749308 C30.8087187,11.0897027 30.2643598,9.26363465 29.2618011,7.7172121 C28.4519346,6.50280863 30.2633555,5.20453364 31.080683,6.46540945 C32.3412884,8.38007 33,10.6334623 33,12.9750045 L33,12.9750045 Z M29.3333971,12.9750045 C29.3333971,14.6540577 28.8607777,16.2738032 27.9441628,17.6730634 C27.7292314,17.9969682 27.3855278,18.1590313 27.0274762,18.1590313 C26.1377636,18.1590313 25.6297049,17.1495487 26.1251375,16.4064338 C26.7984839,15.3903124 27.1420441,14.2119803 27.1420441,12.9749308 C27.1420441,11.7525606 26.7984839,10.5596967 26.1251375,9.54342767 C25.3099622,8.32068868 27.1083983,7.03834706 27.9441628,8.29155125 C28.8607777,9.67598449 29.3333971,11.2960989 29.3333971,12.9750045 L29.3333971,12.9750045 Z" id="Shape"></path>
                </g>
            </g>
        </g>
    </g>
</svg>