<?xml version="1.0" encoding="UTF-8"?>
<svg width="32px" height="18px" viewBox="0 0 32 18" version="1.1" xmlns="http://www.w3.org/2000/svg" xmlns:xlink="http://www.w3.org/1999/xlink">
    <!-- Generator: Sketch 53.2 (72643) - https://sketchapp.com -->
    <title>soundcloud</title>
    <desc>Created with Sketch.</desc>
    <g id="Page-1" stroke="none" stroke-width="1" fill="none" fill-rule="evenodd">
        <g id="Tablet" transform="translate(-395.000000, -3133.000000)" fill="#FFFFFF" fill-rule="nonzero">
            <g id="Group-2-Copy-2" transform="translate(293.000000, 3133.000000)">
                <g id="soundcloud" transform="translate(102.000000, 0.000000)">
                    <path d="M27,8 C26.644,8 26.294,8.038 25.958,8.11 C25.508,3.564 21.662,0 17,0 C16.448,0 16,0.448 16,1 L16,17 C16,17.552 16.448,18 17,18 L27,18 C29.758,18 32,15.758 32,13 C32,10.244 29.758,8 27,8 Z" id="Path"></path>
                    <path d="M13,2 C12.448,2 12,2.448 12,3 L12,17 C12,17.552 12.448,18 13,18 C13.552,18 14,17.552 14,17 L14,3 C14,2.448 13.552,2 13,2 Z" id="Path"></path>
                    <path d="M9,6 C8.448,6 8,6.448 8,7 L8,17 C8,17.552 8.448,18 9,18 C9.552,18 10,17.552 10,17 L10,7 C10,6.448 9.552,6 9,6 Z" id="Path"></path>
                    <path d="M5,6 C4.448,6 4,6.448 4,7 L4,17 C4,17.552 4.448,18 5,18 C5.552,18 6,17.552 6,17 L6,7 C6,6.448 5.552,6 5,6 Z" id="Path"></path>
                    <path d="M1,9 C0.448,9 0,9.448 0,10 L0,16 C0,16.552 0.448,17 1,17 C1.552,17 2,16.552 2,16 L2,10 C2,9.448 1.552,9 1,9 Z" id="Path"></path>
                </g>
            </g>
        </g>
    </g>
</svg>